<svg xmlns="http://www.w3.org/2000/svg" xmlns:xlink="http://www.w3.org/1999/xlink" width="258.127" height="50" viewBox="0 0 258.127 50"><defs><style>.a{fill:none;}.b{fill:#273656;}.c{clip-path:url(#a);}.d{fill:#0bdab2;}.e{fill:#4e67b4;}.f{fill:#79e9e8;}</style><clipPath id="a"><rect class="a" width="258.127" height="50"/></clipPath></defs><path class="b" d="M26.264,10.069l8.59,20.7H17.532ZM21.617,0,0,49.289H9.788l4.366-10.42H38.235L42.6,49.289H52.738L31.4,0Z" transform="translate(0 0)"/><g class="c"><path class="b" d="M171.649,49.876l-8.576-14.671a15.773,15.773,0,0,1-1.772.071h-10.54v14.6H140.607V.265H161.3q9.637,0,14.884,4.466t5.244,12.615a18.658,18.658,0,0,1-2.516,9.922,15.4,15.4,0,0,1-7.335,6.166l10.914,16.443ZM150.762,26.913H161.3q5.386,0,8.221-2.339t2.835-6.945q0-4.535-2.835-6.8T161.3,8.558h-10.54Z" transform="translate(-19.626 -0.037)"/><path class="b" d="M281.878,9.8a22.992,22.992,0,0,0-6.856-1.24,9.6,9.6,0,0,0-5.237,1.24,3.887,3.887,0,0,0-1.929,3.445,4.537,4.537,0,0,0,1.344,3.343,10.494,10.494,0,0,0,3.376,2.205,53.42,53.42,0,0,0,5.547,1.895,60.657,60.657,0,0,1,8.027,2.894,14.323,14.323,0,0,1,5.341,4.272,11.766,11.766,0,0,1,2.205,7.443,12.72,12.72,0,0,1-2.377,7.683,14.885,14.885,0,0,1-6.546,5,24.8,24.8,0,0,1-9.544,1.723,30.022,30.022,0,0,1-11.025-2.1,31.3,31.3,0,0,1-9.371-5.616l3.859-7.855a28.235,28.235,0,0,0,8.2,5.305,21.8,21.8,0,0,0,8.475,1.929,10.764,10.764,0,0,0,6.064-1.481,4.879,4.879,0,0,0,.861-7.443,10,10,0,0,0-3.411-2.17q-2.068-.827-5.65-1.861a66.827,66.827,0,0,1-7.993-2.825,13.885,13.885,0,0,1-5.306-4.169,11.5,11.5,0,0,1-2.2-7.339,12.3,12.3,0,0,1,2.239-7.338,14.413,14.413,0,0,1,6.34-4.858A24.309,24.309,0,0,1,275.78.148a32.045,32.045,0,0,1,9.268,1.378,31.323,31.323,0,0,1,8.165,3.721l-3.72,8.062A34.937,34.937,0,0,0,281.878,9.8" transform="translate(-35.569 -0.021)"/><path class="b" d="M115.583,12.177a23.245,23.245,0,0,0-9.238-8.848A27.836,27.836,0,0,0,92.985.167H72.306V19.98H82.815V8.553H92.843a16.761,16.761,0,0,1,8.35,2.1,15.1,15.1,0,0,1,5.862,5.9,17.2,17.2,0,0,1,2.132,8.563,17.269,17.269,0,0,1-2.061,8.492,14.88,14.88,0,0,1-5.721,5.828,16.22,16.22,0,0,1-8.208,2.1H82.815V30.5H72.306V49.91H92.63a28.285,28.285,0,0,0,13.572-3.2,23.666,23.666,0,0,0,9.344-8.847,24.523,24.523,0,0,0,3.376-12.826,24.921,24.921,0,0,0-3.34-12.862" transform="translate(-10.092 -0.023)"/><rect class="d" width="10.52" height="10.52" transform="translate(179.304 30.276)"/><rect class="d" width="10.52" height="10.52" transform="translate(179.304 9.237)"/><rect class="e" width="10.52" height="10.52" transform="translate(168.785 19.756)"/><rect class="f" width="10.52" height="10.52" transform="translate(179.304 19.756)"/><rect class="e" width="10.52" height="10.52" transform="translate(189.824 19.756)"/><rect class="b" width="27.943" height="9.205" transform="translate(179.303 0.032)"/><rect class="b" width="28.929" height="9.205" transform="translate(179.304 40.795)"/></g></svg>